HIERARCHY
ROOT Hips
{
    OFFSET   0.000000   0.000000   0.000000
    CHANNELS 6 Xposition Yposition Zposition Zrotation Xrotation Yrotation
    JOINT Chest
    {
        OFFSET   0.000000   8.007230   0.000000
        CHANNELS 3 Zrotation Xrotation Yrotation
        JOINT Chest2
        {
            OFFSET   0.000000  22.077100   0.000000
            CHANNELS 3 Zrotation Xrotation Yrotation
            JOINT Neck
            {
                OFFSET   0.000000  23.254800   0.000000
                CHANNELS 3 Zrotation Xrotation Yrotation
                JOINT Head
                {
                    OFFSET   0.000010  14.370000   1.956600
                    CHANNELS 3 Zrotation Xrotation Yrotation
                    End Site
                    {
                        OFFSET   0.000000  19.566000   0.000000
                    }
                }
            }
            JOINT LeftCollar
            {
                OFFSET   3.911900  19.017000  -0.467062
                CHANNELS 3 Zrotation Xrotation Yrotation
                JOINT LeftShoulder
                {
                    OFFSET  10.383700   0.000000   0.000000
                    CHANNELS 3 Zrotation Xrotation Yrotation
                    JOINT LeftElbow
                    {
                        OFFSET  26.662100   0.001193   0.000835
                        CHANNELS 3 Zrotation Xrotation Yrotation
                        JOINT LeftWrist
                        {
                            OFFSET  28.869000  -0.000058  -0.000075
                            CHANNELS 3 Zrotation Xrotation Yrotation
                            JOINT LeftFinger0
                            {
                                OFFSET   2.044660  -2.323460   3.252850
                                CHANNELS 3 Zrotation Xrotation Yrotation
                                JOINT LeftFinger01
                                {
                                    OFFSET   3.088130   0.000000   0.000000
                                    CHANNELS 3 Zrotation Xrotation Yrotation
                                    JOINT LeftFinger02
                                    {
                                        OFFSET   2.639450   0.000000   0.000000
                                        CHANNELS 3 Zrotation Xrotation Yrotation
                                        End Site
                                        {
                                            OFFSET   2.582190   0.000000   0.000000
                                        }
                                    }
                                }
                            }
                            JOINT LeftFinger1
                            {
                                OFFSET   8.364480   0.000000   3.252850
                                CHANNELS 3 Zrotation Xrotation Yrotation
                                JOINT LeftFinger11
                                {
                                    OFFSET   4.646920   0.000000   0.000000
                                    CHANNELS 3 Zrotation Xrotation Yrotation
                                    JOINT LeftFinger12
                                    {
                                        OFFSET   2.323460   0.000000   0.000000
                                        CHANNELS 3 Zrotation Xrotation Yrotation
                                        End Site
                                        {
                                            OFFSET   2.273050   0.000000   0.000000
                                        }
                                    }
                                }
                            }
                            JOINT LeftFinger2
                            {
                                OFFSET   8.364490   0.000016   1.078090
                                CHANNELS 3 Zrotation Xrotation Yrotation
                                JOINT LeftFinger21
                                {
                                    OFFSET   5.111620   0.000000   0.000000
                                    CHANNELS 3 Zrotation Xrotation Yrotation
                                    JOINT LeftFinger22
                                    {
                                        OFFSET   2.788150   0.000012   0.000000
                                        CHANNELS 3 Zrotation Xrotation Yrotation
                                        End Site
                                        {
                                            OFFSET   2.727660   0.000000   0.000000
                                        }
                                    }
                                }
                            }
                            JOINT LeftFinger3
                            {
                                OFFSET   7.899780   0.000014  -1.078090
                                CHANNELS 3 Zrotation Xrotation Yrotation
                                JOINT LeftFinger31
                                {
                                    OFFSET   4.646930   0.000000   0.000000
                                    CHANNELS 3 Zrotation Xrotation Yrotation
                                    JOINT LeftFinger32
                                    {
                                        OFFSET   2.323470   0.000000   0.000000
                                        CHANNELS 3 Zrotation Xrotation Yrotation
                                        End Site
                                        {
                                            OFFSET   2.273050   0.000000   0.000000
                                        }
                                    }
                                }
                            }
                            JOINT LeftFinger4
                            {
                                OFFSET   7.435090   0.000000  -3.252850
                                CHANNELS 3 Zrotation Xrotation Yrotation
                                JOINT LeftFinger41
                                {
                                    OFFSET   3.717550   0.000000   0.000000
                                    CHANNELS 3 Zrotation Xrotation Yrotation
                                    JOINT LeftFinger42
                                    {
                                        OFFSET   1.858770   0.000000   0.000000
                                        CHANNELS 3 Zrotation Xrotation Yrotation
                                        End Site
                                        {
                                            OFFSET   1.818440   0.000000   0.000000
                                        }
                                    }
                                }
                            }
                        }
                    }
                }
            }
            JOINT RightCollar
            {
                OFFSET  -3.911900  19.017000  -0.467063
                CHANNELS 3 Zrotation Xrotation Yrotation
                JOINT RightShoulder
                {
                    OFFSET -10.383700   0.000023   0.000000
                    CHANNELS 3 Zrotation Xrotation Yrotation
                    JOINT RightElbow
                    {
                        OFFSET -26.662100   0.001246   0.001011
                        CHANNELS 3 Zrotation Xrotation Yrotation
                        JOINT RightWrist
                        {
                            OFFSET -28.869000  -0.000026  -0.000078
                            CHANNELS 3 Zrotation Xrotation Yrotation
                            JOINT RightFinger0
                            {
                                OFFSET  -2.044660  -2.323490   3.252850
                                CHANNELS 3 Zrotation Xrotation Yrotation
                                JOINT RightFinger01
                                {
                                    OFFSET  -3.088130   0.000000   0.000000
                                    CHANNELS 3 Zrotation Xrotation Yrotation
                                    JOINT RightFinger02
                                    {
                                        OFFSET  -2.639460   0.000000   0.000000
                                        CHANNELS 3 Zrotation Xrotation Yrotation
                                        End Site
                                        {
                                            OFFSET  -2.582190   0.000000   0.000000
                                        }
                                    }
                                }
                            }
                            JOINT RightFinger1
                            {
                                OFFSET  -8.364480   0.000000   3.252850
                                CHANNELS 3 Zrotation Xrotation Yrotation
                                JOINT RightFinger11
                                {
                                    OFFSET  -4.646920   0.000000   0.000000
                                    CHANNELS 3 Zrotation Xrotation Yrotation
                                    JOINT RightFinger12
                                    {
                                        OFFSET  -2.323470   0.000000   0.000000
                                        CHANNELS 3 Zrotation Xrotation Yrotation
                                        End Site
                                        {
                                            OFFSET  -2.273050   0.000000   0.000000
                                        }
                                    }
                                }
                            }
                            JOINT RightFinger2
                            {
                                OFFSET  -8.364480   0.000000   1.078090
                                CHANNELS 3 Zrotation Xrotation Yrotation
                                JOINT RightFinger21
                                {
                                    OFFSET  -5.111620   0.000000   0.000000
                                    CHANNELS 3 Zrotation Xrotation Yrotation
                                    JOINT RightFinger22
                                    {
                                        OFFSET  -2.788160   0.000000   0.000000
                                        CHANNELS 3 Zrotation Xrotation Yrotation
                                        End Site
                                        {
                                            OFFSET  -2.727660   0.000000   0.000000
                                        }
                                    }
                                }
                            }
                            JOINT RightFinger3
                            {
                                OFFSET  -7.899780   0.000000  -1.078090
                                CHANNELS 3 Zrotation Xrotation Yrotation
                                JOINT RightFinger31
                                {
                                    OFFSET  -4.646930   0.000000   0.000000
                                    CHANNELS 3 Zrotation Xrotation Yrotation
                                    JOINT RightFinger32
                                    {
                                        OFFSET  -2.323470   0.000000   0.000000
                                        CHANNELS 3 Zrotation Xrotation Yrotation
                                        End Site
                                        {
                                            OFFSET  -2.273050   0.000000   0.000000
                                        }
                                    }
                                }
                            }
                            JOINT RightFinger4
                            {
                                OFFSET  -7.435090   0.000000  -3.252850
                                CHANNELS 3 Zrotation Xrotation Yrotation
                                JOINT RightFinger41
                                {
                                    OFFSET  -3.717550   0.000000   0.000000
                                    CHANNELS 3 Zrotation Xrotation Yrotation
                                    JOINT RightFinger42
                                    {
                                        OFFSET  -1.858760   0.000000   0.000000
                                        CHANNELS 3 Zrotation Xrotation Yrotation
                                        End Site
                                        {
                                            OFFSET  -1.818440   0.000000   0.000000
                                        }
                                    }
                                }
                            }
                        }
                    }
                }
            }
        }
    }
    JOINT LeftHip
    {
        OFFSET   9.783010   0.000000   0.000000
        CHANNELS 3 Zrotation Xrotation Yrotation
        JOINT LeftKnee
        {
            OFFSET   0.000073 -41.789100   0.001749
            CHANNELS 3 Zrotation Xrotation Yrotation
            JOINT LeftAnkle
            {
                OFFSET   0.000111 -41.133200  -0.000179
                CHANNELS 3 Zrotation Xrotation Yrotation
                JOINT LeftToe
                {
                    OFFSET   0.000000  -6.358960  14.674500
                    CHANNELS 3 Zrotation Xrotation Yrotation
                    End Site
                    {
                        OFFSET   0.000000   0.000000   3.913200
                    }
                }
            }
        }
    }
    JOINT RightHip
    {
        OFFSET  -9.783010   0.000000   0.000000
        CHANNELS 3 Zrotation Xrotation Yrotation
        JOINT RightKnee
        {
            OFFSET   0.000424 -41.789200   0.005205
            CHANNELS 3 Zrotation Xrotation Yrotation
            JOINT RightAnkle
            {
                OFFSET   0.000000 -41.133200  -0.000155
                CHANNELS 3 Zrotation Xrotation Yrotation
                JOINT RightToe
                {
                    OFFSET   0.000000  -6.358960  14.674500
                    CHANNELS 3 Zrotation Xrotation Yrotation
                    End Site
                    {
                        OFFSET   0.000000   0.000000   3.913200
                    }
                }
            }
        }
    }
}
MOTION
Frames: 6
Frame Time:   0.016667
 -0.514666  89.899300  -1.055030  -1.119540  -8.229620  -0.655800   0.466624   7.086840  -0.334050   0.986753  14.170600  -0.735229   0.459385  -2.838200   0.013657   0.759804  -5.754370   8.477470  -9.323000  -7.771430   2.407870 -51.172500  37.500400 -35.387800  -5.922020 -10.676300 -110.808000 -38.999400 -45.667000   1.265730 111.772000  67.251900 -130.144000 -55.608000  -0.005484   0.001495 -30.375000  -0.003849  -0.000095 -89.001900   5.000450  -0.086246 -73.466800  -0.005341   0.002631 -55.100000  -0.001277  -0.005937 -75.272700   0.002015   0.000323 -75.272700   0.003845  -0.000529 -56.454600   0.001483  -0.006991 -75.486600  -4.841120   1.251530 -75.539400  -0.006302  -0.005799 -56.654600   0.000840  -0.005369 -85.337400  -9.966490   0.808758 -110.000000  -0.001682   0.000886 -80.000000   0.000380  -0.000078  12.305300  -2.666760  16.412700  56.597500  26.525900  21.397100   0.303069 -20.694800 111.312000  41.414100 -39.284000  31.518000 -14.039600  28.225600  36.512300  79.157800   0.004770  -0.024542  46.059000   0.000602   0.000268  88.996200   5.000590   0.087655  79.481400  -0.001254   0.001120  59.611000   0.005146   0.001995  81.061000  -0.002627   0.001047  81.061000  -0.000817   0.002586  60.795800   0.005293   0.004161  83.271800  -4.968220  -0.585076  83.297200   0.000928  -0.000251  62.472900   0.005771   0.002433  88.984900  -9.995130  -0.174551 110.000000  -0.005402  -0.009388  79.999900  -0.000744   0.002853   1.654420   9.267450   2.612870   0.067698   1.549750  11.025700  -4.937130  -4.097750   3.081290  -0.000000   0.000000  -0.000000   1.390600   9.108620  -8.131340  -0.969029   2.568460 -11.395600  -5.209620  -0.613848   2.108090   0.000000   0.000000   0.000000
 -0.511246  89.899100  -1.042500  -1.106030  -8.180050  -0.643295   0.468282   7.062870  -0.334030   0.989836  14.122600  -0.735219   0.472239  -2.821690   0.013835   0.781252  -5.720980   8.446260  -9.315390  -7.766100   2.360510 -51.146800  37.459400 -35.451000  -5.880960 -10.743700 -110.784000 -38.956800 -45.717000   1.193970 111.692000  67.248900 -130.125000 -55.597000  -0.005557   0.001366 -30.367600  -0.003856  -0.000189 -89.002200   5.000490  -0.086300 -73.461800  -0.005545   0.002400 -55.096300  -0.001113  -0.006130 -75.340100   0.001874   0.000492 -75.340100   0.003646  -0.000613 -56.505100   0.001513  -0.007282 -75.633000  -4.844400   1.239140 -75.685300  -0.006551  -0.005973 -56.764000   0.000905  -0.005550 -85.398500  -9.967030   0.798171 -110.000000  -0.001669   0.000837 -80.000000   0.000362  -0.000155  12.316900  -2.664890  16.407100  56.516400  26.614300  21.481300   0.336971 -20.822100 111.305000  41.402700 -39.215700  31.459900 -14.038900  28.218400  36.341700  79.124700   0.004854  -0.024969  46.037200   0.000575   0.000110  88.996200   5.000530   0.087653  79.395700  -0.001268   0.001036  59.546700   0.005305   0.002097  81.157000  -0.002468   0.001066  81.157000  -0.000886   0.002412  60.867800   0.005467   0.004236  83.106500  -4.967730  -0.599383  83.132500   0.000890  -0.000119  62.349400   0.006029   0.002415  88.984900  -9.995250  -0.174652 110.000000  -0.005461  -0.009342  79.999900  -0.000682   0.002712   1.639260   9.227160   2.603800   0.069297   1.542150  11.018500  -4.936540  -4.099270   3.088860   0.000000   0.000000   0.000000   1.371810   9.080390  -8.133410  -0.961714   2.540770 -11.394700  -5.205090  -0.606104   2.103330   0.000000   0.000000  -0.000000
 -0.508784  89.898700  -1.031420  -1.093770  -8.130710  -0.630853   0.471033   7.041260  -0.335925   0.995396  14.079400  -0.739006   0.479166  -2.798150   0.014024   0.793873  -5.672940   8.412660  -9.316220  -7.776530   2.336920 -51.110900  37.467800 -35.529600  -5.828310 -10.832400 -110.766000 -38.981500 -45.871600   1.026320 111.610000  67.260200 -130.128000 -55.622800  -0.005628   0.001238 -30.384800  -0.003861  -0.000313 -89.002400   5.000520  -0.086354 -73.489900  -0.005753   0.002165 -55.117300  -0.000952  -0.006327 -75.406400   0.001729   0.000667 -75.406400   0.003462  -0.000693 -56.554800   0.001545  -0.007585 -75.713700  -4.846810   1.232370 -75.765700  -0.006805  -0.006152 -56.824300   0.000974  -0.005721 -85.458100  -9.967580   0.787883 -110.000000  -0.001644   0.000783 -80.000000   0.000348  -0.000257  12.336900  -2.678290  16.423400  56.442500  26.721900  21.566100   0.364445 -20.982700 111.297000  41.413000 -39.134400  31.465400 -14.035700  28.122600  36.318500  79.120400   0.004929  -0.025341  46.034900   0.000553  -0.000033  88.996200   5.000450   0.087653  79.430100  -0.001275   0.000945  59.572600   0.005461   0.002202  81.171100  -0.002296   0.001091  81.171200  -0.000968   0.002244  60.878300   0.005644   0.004309  82.987500  -4.967240  -0.609676  83.014000   0.000847   0.000002  62.260500   0.006287   0.002404  88.984900  -9.995370  -0.174747 110.000000  -0.005532  -0.009299  79.999900  -0.000627   0.002567   1.627620   9.192670   2.602390   0.067040   1.526360  11.009000  -4.936670  -4.099170   3.091070   0.000000   0.000000   0.000000   1.355780   9.056010  -8.124280  -0.953612   2.506620 -11.396700  -5.201440  -0.596466   2.089410   0.000000   0.000000  -0.000000
 -0.507130  89.898200  -1.020490  -1.083270  -8.083050  -0.617056   0.474285   7.019520  -0.337962   1.002070  14.035900  -0.743455   0.481598  -2.769670   0.014218   0.800812  -5.614940   8.374740  -9.316800  -7.786880   2.327530 -51.060000  37.498100 -35.633300  -5.779190 -10.913200 -110.745000 -38.992800 -46.030500   0.906768 111.561000  67.270200 -130.135000 -55.648600  -0.005698   0.001110 -30.402000  -0.003866  -0.000448 -89.002700   5.000550  -0.086411 -73.517900  -0.005958   0.001928 -55.138300  -0.000792  -0.006527 -75.446000   0.001585   0.000840 -75.446000   0.003269  -0.000774 -56.584500   0.001579  -0.007886 -75.770500  -4.848810   1.227610 -75.822400  -0.007061  -0.006334 -56.866800   0.001044  -0.005890 -85.490900  -9.968110   0.782234 -110.000000  -0.001613   0.000732 -80.000000   0.000334  -0.000368  12.358400  -2.691530  16.450600  56.382900  26.807000  21.649500   0.369079 -21.107800 111.266000  41.460100 -39.065600  31.539500 -14.018300  28.060100  36.308500  79.119800   0.005000  -0.025699  46.034500   0.000534  -0.000176  88.996200   5.000380   0.087653  79.467400  -0.001279   0.000858  59.600600   0.005617   0.002312  81.185200  -0.002126   0.001118  81.185300  -0.001054   0.002086  60.888900   0.005818   0.004385  82.932300  -4.966760  -0.614444  82.959100   0.000803   0.000121  62.219300   0.006544   0.002400  88.984900  -9.995500  -0.174841 110.000000  -0.005601  -0.009255  79.999900  -0.000573   0.002423   1.621720   9.159370   2.601980   0.060680   1.508630  10.996200  -4.936880  -4.098520   3.091790   0.000000   0.000000   0.000000   1.343630   9.035650  -8.114570  -0.945881   2.470220 -11.398600  -5.198900  -0.587040   2.069960  -0.000000   0.000000   0.000000
 -0.506221  89.897800  -1.008690  -1.076820  -8.038110  -0.603316   0.478286   6.994270  -0.338109   1.009930  13.985300  -0.744210   0.481868  -2.736060   0.014407   0.802913  -5.546970   8.328630  -9.317180  -7.778450   2.328760 -50.978000  37.520300 -35.784600  -5.744570 -10.945700 -110.690000 -38.973900 -46.110500   0.911931 111.557000  67.248200 -130.098000 -55.590500  -0.005770   0.000983 -30.363300  -0.003873  -0.000584 -89.002900   5.000580  -0.086475 -73.485500  -0.006142   0.001696 -55.114100  -0.000637  -0.006732 -75.404000   0.001447   0.001004 -75.403900   0.003045  -0.000857 -56.552900   0.001615  -0.008175 -75.815300  -4.850580   1.223800 -75.867200  -0.007318  -0.006514 -56.900400   0.001113  -0.006064 -85.479600  -9.968630   0.784186 -110.000000  -0.001578   0.000693 -80.000000   0.000315  -0.000479  12.370500  -2.684800  16.472800  56.355800  26.827800  21.726700   0.317573 -21.148200 111.199000  41.621500 -39.081100  31.750600 -14.028600  28.137100  36.336800  79.120200   0.005069  -0.026061  46.035100   0.000513  -0.000335  88.996200   5.000310   0.087658  79.470900  -0.001282   0.000788  59.603100   0.005780   0.002429  81.255500  -0.001963   0.001146  81.255600  -0.001139   0.001948  60.941600   0.005982   0.004471  82.947200  -4.966300  -0.614400  82.974000   0.000762   0.000243  62.230500   0.006799   0.002401  88.984900  -9.995630  -0.174943 110.000000  -0.005654  -0.009207  79.999900  -0.000512   0.002288   1.621560   9.121530   2.608080   0.052905   1.495100  10.973200  -4.936820  -4.094520   3.093510   0.000000   0.000000   0.000000   1.337320   9.021940  -8.113480  -0.939031   2.432970 -11.393200  -5.198110  -0.579829   2.048900  -0.000000   0.000000   0.000000
 -0.505677  89.897300  -0.996889  -1.071500  -7.995110  -0.586857   0.482210   6.968540  -0.338115   1.017630  13.933900  -0.744175   0.481945  -2.702990   0.014598   0.802686  -5.480190   8.279320  -9.317600  -7.769110   2.329990 -50.898100  37.535700 -35.935500  -5.714470 -10.966700 -110.640000 -38.939400 -46.138100   0.939322 111.568000  67.225000 -130.064000 -55.532400  -0.005842   0.000856 -30.324600  -0.003879  -0.000724 -89.003100   5.000610  -0.086539 -73.453100  -0.006327   0.001464 -55.089800  -0.000480  -0.006936 -75.361900   0.001310   0.001163 -75.361900   0.002813  -0.000943 -56.521400   0.001652  -0.008462 -75.881600  -4.852270   1.218160 -75.933300  -0.007573  -0.006697 -56.950000   0.001184  -0.006243 -85.468200  -9.969140   0.786137 -110.000000  -0.001554   0.000656 -80.000000   0.000296  -0.000588  12.380100  -2.666190  16.495000  56.330400  26.819400  21.808200   0.265823 -21.128000 111.128000  41.721300 -39.112600  31.907700 -14.050100  28.293900  36.385600  79.120900   0.005136  -0.026430  46.036100   0.000493  -0.000493  88.996200   5.000240   0.087664  79.471400  -0.001284   0.000721  59.603500   0.005942   0.002550  81.330000  -0.001809   0.001174  81.330000  -0.001225   0.001813  60.997400   0.006147   0.004558  82.962000  -4.965850  -0.614332  82.988800   0.000716   0.000370  62.241600   0.007052   0.002408  88.984800  -9.995760  -0.175047 110.000000  -0.005704  -0.009159  79.999900  -0.000451   0.002154   1.621420   9.083470   2.614180   0.044946   1.483360  10.954300  -4.935930  -4.089250   3.094510   0.000000   0.000000  -0.000000   1.332040   9.007900  -8.113050  -0.931914   2.399730 -11.382700  -5.198220  -0.573864   2.026590  -0.000000   0.000000   0.000000
